<svg width="130px" height="19px" viewBox="0 0 130 19" version="1.1" class="logo" xmlns="http://www.w3.org/2000/svg" xmlns:xlink="http://www.w3.org/1999/xlink"><title>Verkada Logo</title><defs><polygon id="path-1" points="0.0187951807 0.13074396 27.1956085 0.13074396 27.1956085
18.8259187 0.0187951807 18.8259187"></polygon></defs><g id="Product-Detail-/-Navi" stroke="none" stroke-width="1" fill="none" fill-rule="evenodd"><g id="Option-2_2-(ㄴMouse-Hover(not-click)" transform="translate(-80.000000, -50.000000)"><g id="**-Navigation"><g id="Logo" transform="translate(80.000000, 50.000000)"><g id="Symbol" transform="translate(-0.000000, 0.000000)"><mask id="mask-2" fill="white"><use xlink:href="#path-1"></use></mask><g id="Clip-2"></g><path d="M8.19093976,13.725494 L21.5727952,0.346144578
C21.8606747,0.0588915663 22.3274217,0.0588915663
22.6156145,0.346457831 L26.9795422,4.70944578
C27.2674217,4.9973253 27.2677349,5.46407229
26.9798554,5.75195181 L14.1189398,18.6100482
C13.8310602,18.8979277 13.3643133,18.8979277
13.0761205,18.6097349 L8.19093976,13.725494" id="Fill-1" fill="#151616" mask="url(#mask-2)"></path><path d="M0.216144578,5.75226506 C-0.0720481928,5.46438554
-0.0720481928,4.9973253 0.216144578,4.70944578
L4.57975904,0.346457831 C4.86795181,0.0588915663
5.3346988,0.0588915663 5.62289157,0.346457831
L12.3885301,7.11084337 L6.98178313,12.5166506
L0.216144578,5.75226506" id="Fill-3" fill="#151616" mask="url(#mask-2)"></path></g><path d="M41.938,12.8819036 C41.6930361,13.5983133
41.4665542,14.4469157 41.2591807,15.2200241
C41.0518072,14.4657108 40.8444337,13.5983133
40.5994699,12.901012 L36.9221928,2.54862651
C36.7903133,2.17146988 36.4698554,2.00168675
36.111494,2.00168675 C35.9984096,2.00168675
35.8853253,2.02048193 35.772241,2.05807229
C35.3759759,2.1526747 35.0743133,2.47344578
35.0743133,2.85028916 C35.0743133,2.94457831
35.0934217,3.05766265 35.131012,3.15226506
L39.9770361,16.0683133 C40.2223133,16.7283373
40.6746506,16.9360241 41.2591807,16.9360241
C41.8249157,16.9360241 42.2775663,16.7283373
42.5225301,16.0877349 L47.3876627,3.11404819
C47.425253,3.01975904 47.4440482,2.92546988
47.4440482,2.83149398 C47.4440482,2.45433735
47.1423855,2.17146988 46.7464337,2.05807229
C46.6333494,2.03927711 46.5202651,2.02048193
46.4071807,2.02048193 C46.0300241,2.02048193
45.7283614,2.19026506 45.5961687,2.56742169 L41.938,12.8819036" id="Fill-5" fill="#151616"></path><path d="M51.2027711,9.94014458 L57.6329157,9.94014458
C58.085253,9.94014458 58.3681205,9.58178313
58.3681205,9.14855422 C58.3681205,8.67679518
58.1043614,8.33722892 57.6329157,8.33722892
L51.2027711,8.33722892 L51.2027711,4.43409639
C51.2027711,3.98175904 51.3913494,3.77407229 51.844,3.77407229
L58.4815181,3.77407229 C58.971759,3.77407229
59.2355181,3.41571084 59.2355181,2.94457831
C59.2355181,2.47344578 58.971759,2.13387952
58.4815181,2.13387952 L51.353759,2.13387952
C50.0149157,2.13387952 49.4303855,2.71809639
49.4303855,4.17033735 L49.4303855,14.8049639
C49.4303855,16.2380964 50.0149157,16.8226265
51.353759,16.8226265 L58.650988,16.8226265
C59.1412289,16.8226265 59.4053012,16.4457831
59.4053012,15.9931325 C59.4053012,15.5216867
59.1412289,15.1821205 58.650988,15.1821205
L51.9003855,15.1821205 C51.4856386,15.1821205
51.2027711,15.0123373 51.2027711,14.5791084
L51.2027711,9.94014458" id="Fill-6" fill="#151616"></path><path d="M72.9882651,14.7106747 C71.5927229,11.185012
70.9893976,9.9213494 69.8579277,9.58178313
C71.6115181,9.20462651 72.8372771,8.07346988
72.8372771,5.90513253 C72.8372771,3.58549398
71.3286506,2.13387952 68.5945783,2.13387952
L64.1820964,2.13387952 C62.8435663,2.13387952
62.2590361,2.71809639 62.2590361,4.17033735
L62.2590361,16.1253253 C62.2590361,16.6719518
62.6361928,16.9360241 63.1640241,16.9360241
C63.6730602,16.9360241 64.0314217,16.6719518
64.0314217,16.1438072 L64.0314217,10.223012
L67.501012,10.223012 C69.3864819,10.223012
69.9146265,11.5618554 71.2722651,15.2391325
L71.7437108,16.4457831 C71.8755904,16.7853494
72.1584578,16.9360241 72.4789157,16.9360241
C72.6111084,16.9360241 72.7617831,16.9169157
72.8939759,16.8793253 C73.2708193,16.7853494
73.5160964,16.5021687 73.5160964,16.1438072
C73.5160964,16.0307229 73.4973012,15.936747
73.4593976,15.8233494 L72.9882651,14.7106747 Z
M64.0314217,8.67679518 L64.0314217,4.35891566
C64.0314217,3.90626506 64.2575904,3.69857831
64.6535422,3.69857831 L68.481494,3.69857831
C70.1595904,3.69857831 71.026988,4.5659759
71.026988,6.16889157 C71.026988,7.67751807
69.971012,8.67679518 68.3684096,8.67679518
L64.0314217,8.67679518 L64.0314217,8.67679518 Z" id="Fill-7" fill="#151616"></path><path d="M81.5739036,8.35633735 L86.4390361,3.45361446
C86.5709157,3.32204819 86.6276145,3.13315663
86.6276145,2.94457831 C86.6276145,2.68050602
86.5145301,2.39763855 86.3068434,2.22785542
C86.1373735,2.07718072 85.9108916,2.00168675
85.6847229,2.00168675 C85.4773494,2.00168675
85.2508675,2.07718072 85.1001928,2.2466506
L78.2740964,9.37440964 L78.2740964,2.79359036
C78.2740964,2.26575904 77.8969398,2.02048193
77.3879036,2.02048193 C76.8600723,2.02048193
76.4829157,2.26575904 76.4829157,2.79359036
L76.4829157,16.1626024 C76.4829157,16.6719518
76.8600723,16.9360241 77.3879036,16.9360241
C77.8969398,16.9360241 78.2740964,16.6719518
78.2740964,16.1626024 L78.2740964,11.6373494
L80.3296627,9.54419277 L85.6659277,16.6343614
C85.8166024,16.8414217 86.0806747,16.9548193
86.3259518,16.9548193 C86.5333253,16.9548193
86.7219036,16.8981205 86.8913735,16.766241
C87.1366506,16.5776627 87.3064337,16.2951084
87.3064337,16.0119277 C87.3064337,15.8421446
87.2497349,15.6723614 87.1366506,15.5216867
L81.5739036,8.35633735" id="Fill-8" fill="#151616"></path><path d="M92.3848916,12.5238554 L98.9093253,12.5238554
L100.398843,16.426988 C100.531036,16.7853494
100.832699,16.9548193 101.171952,16.9548193
C101.285036,16.9548193 101.39812,16.9360241
101.511518,16.8981205 C101.888675,16.8041446
102.190337,16.5209639 102.190337,16.1438072
C102.190337,16.0307229 102.171229,15.936747
102.114843,15.8233494 L96.9859518,2.9066747
C96.7406747,2.26575904 96.2504337,2.02048193
95.6471084,2.02048193 C95.0625783,2.02048193
94.5911325,2.26575904 94.3461687,2.9066747
L89.2169639,15.7860723 C89.1793735,15.8988434
89.1605783,15.9931325 89.1605783,16.1065301
C89.1605783,16.4648916 89.4434458,16.7853494
89.8206024,16.8793253 C89.9524819,16.9169157
90.0655663,16.9360241 90.197759,16.9360241
C90.5182169,16.9360241 90.8010843,16.7853494
90.9329639,16.4078795 L92.3848916,12.5238554 Z
M92.9506265,10.9394217 L95.0813735,5.47127711
C95.3078554,4.90554217 95.4961205,4.30221687
95.6659036,3.6613012 C95.8356867,4.30221687
96.0430602,4.90554217 96.2504337,5.45248193
L98.3435904,10.9394217 L92.9506265,10.9394217
L92.9506265,10.9394217 Z" id="Fill-9" fill="#151616"></path><path d="M104.157566,14.8049639 C104.157566,16.2380964
104.742096,16.8226265 106.08094,16.8226265
L109.437446,16.8226265 C113.566747,16.8226265
116.055855,14.0130602 116.055855,9.31771084
C116.055855,4.7733494 113.604651,2.13387952
109.437446,2.13387952 L106.08094,2.13387952
C104.742096,2.13387952 104.157566,2.71809639
104.157566,4.17033735 L104.157566,14.8049639 Z
M105.94906,4.37739759 C105.94906,3.98175904
106.212819,3.75527711 106.571181,3.75527711
L109.399542,3.75527711 C112.510771,3.75527711
114.189181,5.7353494 114.189181,9.33681928
C114.189181,13.0137831 112.397687,15.1821205
109.343157,15.1821205 L106.552386,15.1821205
C106.175229,15.1821205 105.94906,14.974747
105.94906,14.5412048 L105.94906,4.37739759
L105.94906,4.37739759 Z" id="Fill-10" fill="#151616"></path><path d="M119.996892,12.5238554 L126.521012,12.5238554
L128.010843,16.426988 C128.142723,16.7853494
128.444386,16.9548193 128.783952,16.9548193
C128.897036,16.9548193 129.01012,16.9360241
129.123205,16.8981205 C129.500361,16.8041446
129.802024,16.5209639 129.802024,16.1438072
C129.802024,16.0307229 129.783229,15.936747
129.726843,15.8233494 L124.597952,2.9066747
C124.352675,2.26575904 123.862434,2.02048193
123.259108,2.02048193 C122.674578,2.02048193
122.203133,2.26575904 121.957855,2.9066747
L116.828964,15.7860723 C116.791373,15.8988434
116.772578,15.9931325 116.772578,16.1065301
C116.772578,16.4648916 117.055133,16.7853494
117.432289,16.8793253 C117.564482,16.9169157
117.677566,16.9360241 117.809446,16.9360241
C118.130217,16.9360241 118.413084,16.7853494
118.544964,16.4078795 L119.996892,12.5238554 Z
M120.562627,10.9394217 L122.693373,5.47127711
C122.919542,4.90554217 123.10812,4.30221687
123.277904,3.6613012 C123.447687,4.30221687
123.65506,4.90554217 123.862434,5.45248193
L125.95559,10.9394217 L120.562627,10.9394217
L120.562627,10.9394217 Z" id="Fill-11" fill="#151616"></path></g></g></g></g></svg>